# xmcd CD database file
#
# Track frame offsets:
#	150
#	10797
#	25872
#	45865
#	70115
#	81697
#	94457
#	114012
#	135480
#	158905
#
# Disc length: 2308 seconds
#
# Revision: 4
# Processed by: cddbd v1.5.2PL0 Copyright (c) Steve Scherf et al.
# Submitted via: CDex 1.70beta2
#
DISCID=7309020a
DTITLE=Willie Nelson - Island In The Sea
DYEAR=1987
DGENRE=Country
TTITLE0=Island In The Sea
TTITLE1=Wake Me When It's Over
TTITLE2=Little Thing
TTITLE3=Last Thing On My Mind
TTITLE4=There Is No Easy Way (But There Is A Way)
TTITLE5=Nobody There But Me
TTITLE6=Cold November Wind
TTITLE7=Women Who Love Too Much
TTITLE8=All In The Name Of Love 
TTITLE9=Sky Train
EXTD=more info - MillenniumMusicProjectFormat - SYNTAX=SongTitle{Subtitle}[miscInfo](Lyricist;Composer;Date,Artist,Location,State,Country) YEAR: 1987
EXTT0=
EXTT1=
EXTT2=
EXTT3=
EXTT4=
EXTT5=
EXTT6=
EXTT7=
EXTT8=
EXTT9=
PLAYORDER=
